# ProBuilder 6.0.4
# https://unity3d.com/unity/features/worldbuilding/probuilder
# 2/14/2025 8:34:49 PM

mtllib ./Base.mtl
o Base

g Base
v 0.5 -0.3 1
v -0.5 -0.3 1
v 0.5 0.3 1
v -0.5 0.3 1
v -0.5 -0.3 -1
v -0.5 0.3 -1
v 0.5 -0.3 -1
v 0.5 0.3 -1
v 0.4602251 -0.2943861 0.9204502
v -0.4602251 -0.2943861 0.9204502
v 0.4602251 -0.2943861 -0.9204502
v -0.4602251 -0.2943861 -0.9204502
v 0.4602251 0.3 0.9204502
v -0.4602251 0.3 0.9204502
v 0.4602251 0.3 -0.9204502
v -0.4602251 0.3 -0.9204502

vt 0.5 -0.3
vt -0.5 -0.3
vt 0.5 0.3
vt -0.5 0.3
vt 1 -0.3
vt -1 -0.3
vt 1 0.3
vt -1 0.3
vt -0.4602251 0.9204502
vt 0.4602251 0.9204502
vt -0.4602251 -0.9204502
vt 0.4602251 -0.9204502
vt 0.5 -1
vt -0.5 -1
vt 0.5 1
vt -0.5 1
vt -0.4602251 0.3
vt 0.4602251 0.3
vt -0.4602251 -0.2943861
vt 0.4602251 -0.2943861
vt -0.9204502 0.3
vt 0.9204502 0.3
vt -0.9204502 -0.2943861
vt 0.9204502 -0.2943861

vn 0 0 1
vn -1 0 0
vn 0 0 -1
vn 1 0 0
vn 0 1 0
vn 0 -1 0

usemtl Chest_Base_Urp
f 3/3/1 4/4/1 2/2/1 1/1/1
f 4/7/2 6/8/2 5/6/2 2/5/2
f 6/3/3 8/4/3 7/2/3 5/1/3
f 8/7/4 3/8/4 1/6/4 7/5/4
f 11/11/5 12/12/5 10/10/5 9/9/5
f 1/15/6 2/16/6 5/14/6 7/13/6
f 13/9/5 14/10/5 4/15/5 3/16/5
f 15/11/5 13/9/5 3/16/5 8/14/5
f 14/10/5 16/12/5 6/13/5 4/15/5
f 16/12/5 15/11/5 8/14/5 6/13/5
f 9/19/3 10/20/3 14/18/3 13/17/3
f 11/23/2 9/24/2 13/22/2 15/21/2
f 10/23/4 12/24/4 16/22/4 14/21/4
f 12/19/1 11/20/1 15/18/1 16/17/1

