# ProBuilder 6.0.4
# https://unity3d.com/unity/features/worldbuilding/probuilder
# 2/14/2025 12:09:12 AM

mtllib ./Spikes.mtl
o Spikes

g Spikes
v 0.1933058 -0.5265755 -0.4086292
v 0.2108229 -0.5227233 -0.4424343
v 0.1452745 0.04177271 -0.3904135
v 0.2423697 -0.5181817 -0.4039093
v 0.2468197 -0.5162107 -0.4536719
v 0.2802097 -0.5108526 -0.4357592
v 0.2914336 -0.5097879 -0.3991894
v 0.2739165 -0.51364 -0.3653843
v 0.2379198 -0.5201527 -0.3541467
v 0.2045297 -0.5255107 -0.3720593
v 0.1923697 -0.5181817 0.2560907
v 0.2070144 -0.5181817 0.2207354
v 0.2423697 0.05028868 0.2560907
v 0.2423697 -0.5181817 0.2560907
v 0.2423697 -0.5181817 0.2060907
v 0.2777251 -0.5181817 0.2207354
v 0.2923697 -0.5181817 0.2560907
v 0.2777251 -0.5181817 0.2914461
v 0.2423697 -0.5181817 0.3060908
v 0.2070144 -0.5181817 0.2914461
v 0.8526349 -0.521138 0.2518831
v 0.8700921 -0.5187858 0.2179098
v 0.8668898 0.04879078 0.2771147
v 0.9023697 -0.5181817 0.2560907
v 0.906457 -0.5160797 0.2063025
v 0.9404277 -0.5146049 0.2238604
v 0.9521046 -0.5152254 0.2602984
v 0.9346475 -0.5175776 0.2942717
v 0.8982825 -0.5202836 0.3058791
v 0.8643117 -0.5217584 0.2883211
v 0.5225932 -0.5152446 0.2597879
v 0.5343373 -0.5200739 0.2236877
v 0.6007243 0.04570736 0.1898809
v 0.5723698 -0.5181817 0.2560907
v 0.5683603 -0.5237948 0.2065689
v 0.604732 -0.5242276 0.2184592
v 0.6221463 -0.5211188 0.2523936
v 0.6104022 -0.5162895 0.2884937
v 0.5763792 -0.5125686 0.3056127
v 0.5400075 -0.5121358 0.2937223
v 0.5224082 -0.5172346 0.5878099
v 0.5358028 -0.5187716 0.5519952
v 0.5824273 0.04982571 0.5654762
v 0.5723698 -0.5181817 0.5860907
v 0.5706177 -0.519963 0.5361532
v 0.606459 -0.520111 0.5495641
v 0.6223312 -0.5191287 0.5843717
v 0.6089367 -0.5175917 0.6201864
v 0.5741218 -0.5164003 0.6360283
v 0.5382805 -0.5162524 0.6226175
v 0.1927199 -0.5199564 0.5804563
v 0.2111425 -0.5167523 0.5470674
v 0.2175097 0.04828869 0.6267335
v 0.2423697 -0.5181817 0.5860907
v 0.2478576 -0.5143856 0.5365381
v 0.2813579 -0.5142425 0.5550358
v 0.2920195 -0.516407 0.5917253
v 0.273597 -0.5196111 0.625114
v 0.2368819 -0.5219778 0.6356435
v 0.2033815 -0.5221208 0.6171456
v 0.1926834 -0.5207294 0.9210688
v 0.2039473 -0.5241423 0.8846552
v 0.2070737 0.0455979 0.852331
v 0.2423697 -0.5181817 0.9160906
v 0.2377186 -0.5240636 0.8666562
v 0.2742144 -0.5205393 0.8776154
v 0.292056 -0.515634 0.9111127
v 0.2807921 -0.512221 0.9475262
v 0.2470209 -0.5122998 0.9655254
v 0.2105251 -0.515824 0.9545662
v -0.1371415 -0.5112082 0.5862091
v -0.1223717 -0.5107477 0.5509089
v -0.008452574 0.04329222 0.6265447
v -0.08763027 -0.5181817 0.5860907
v -0.08725088 -0.5146419 0.5362177
v -0.05235233 -0.5206096 0.5507414
v -0.0381191 -0.5251551 0.5859724
v -0.05288885 -0.5256157 0.6212728
v -0.08800969 -0.5217215 0.635964
v -0.1229083 -0.5157537 0.6214401
v 0.5224062 -0.5170953 -0.0754782
v 0.5381505 -0.517383 -0.1103566
v 0.5847 0.05015426 -0.0730323
v 0.5723698 -0.5181817 -0.07390928
v 0.57394 -0.5181386 -0.1238846
v 0.6088096 -0.5189194 -0.1081378
v 0.6223333 -0.519268 -0.07234036
v 0.606589 -0.5189803 -0.03746203
v 0.5707996 -0.5182247 -0.02393397
v 0.5359299 -0.5174439 -0.03968076
v -0.4671845 -0.5116488 0.2573952
v -0.4535289 -0.5130177 0.2216725
v -0.3431582 0.04534761 0.2629647
v -0.4176303 -0.5181817 0.2560907
v -0.4188445 -0.5174116 0.2061114
v -0.3834487 -0.5222566 0.2198276
v -0.368076 -0.5247145 0.2547863
v -0.3817317 -0.5233456 0.290509
v -0.4164162 -0.5189518 0.3060701
v -0.4518119 -0.5141068 0.2923539
v -0.1367999 -0.5271634 0.2573837
v -0.1224643 -0.5292175 0.2219615
v -0.1907951 0.03594533 0.1822072
v -0.08763026 -0.5181817 0.2560908
v -0.08772332 -0.5248069 0.2065317
v -0.05292791 -0.5165153 0.2201328
v -0.03846063 -0.5091999 0.2547977
v -0.05279629 -0.5071459 0.29022
v -0.08753724 -0.5115565 0.3056498
v -0.1223327 -0.519848 0.2920486
v -0.1368605 -0.5261198 -0.07756638
v -0.1196584 -0.5248226 -0.1117259
v -0.1763553 0.04283522 -0.09728498
v -0.08763029 -0.5181817 -0.07390929
v -0.08369471 -0.5196353 -0.123733
v -0.05003641 -0.5135964 -0.106554
v -0.03840009 -0.5102435 -0.07025217
v -0.05560216 -0.5115407 -0.03609265
v -0.09156586 -0.5167281 -0.0240856
v -0.1252241 -0.5227669 -0.04126456
v 0.192598 -0.5177063 -0.06916064
v 0.2038017 -0.5207883 -0.1056222
v 0.2432366 0.04829035 -0.1215247
v 0.2423697 -0.5181817 -0.07390929
v 0.237598 -0.5223433 -0.1235068
v 0.2741895 -0.5214605 -0.1123378
v 0.2921414 -0.518657 -0.0786579
v 0.2809378 -0.5155751 -0.04219639
v 0.2471415 -0.51402 -0.02431177
v 0.21055 -0.5149028 -0.03548077

vt 0.07653669 0
vt 0 0
vt 0.03826835 0.976594
vt -0.05 0
vt -0.03535534 -0.03535534
vt 2.18557E-09 -0.05
vt 0.03535534 -0.03535534
vt 0.05 4.371139E-09
vt 0.03535534 0.03535534
vt -5.962441E-10 0.05
vt -0.03535533 0.03535534
vt -0.05142802 -0.001708508
vt -0.03678338 -0.03706384
vt -0.001428023 -0.001708508
vt -0.03614517 -0.03384513
vt -0.0007898398 -0.04848981
vt -0.0007898323 0.001510143
vt 0.00170847 -0.05142796
vt 0.03706381 -0.03678334
vt 0.001708575 -0.001428008
vt 0.03384516 -0.03614515
vt 0.04848985 -0.0007898808
vt -0.001510166 -0.0007898211
vt 0.051428 0.001708448
vt 0.03678342 0.03706378
vt 0.001427982 0.001708567
vt 0.03614517 0.03384519
vt 0.0007898659 0.04848981
vt 0.0007898286 -0.001510143
vt -0.001708549 0.05142802
vt -0.03706389 0.0367834
vt -0.001708448 0.001428068
vt -0.03384516 0.03614515
vt -0.04848983 0.0007898211
vt 0.001510173 0.0007898211
vt -5.304813E-05 -0.04987478
vt 0.04987484 -5.304813E-05
vt 5.298853E-05 0.04987484
vt -0.04987478 5.304813E-05
vt -0.05236146 -0.003288746
vt -0.03771681 -0.03864408
vt -0.002361476 -0.003288746
vt -0.03698918 -0.03272223
vt -0.001633823 -0.04736692
vt -0.001633853 0.002633035
vt 0.003288716 -0.05236143
vt 0.03864408 -0.03771681
vt 0.003288746 -0.002361476
vt 0.03272226 -0.03698921
vt 0.04736695 -0.001633823
vt -0.002633035 -0.001633823
vt 0.05236143 0.003288686
vt 0.03771684 0.03864408
vt 0.002361447 0.003288686
vt 0.03698912 0.03272223
vt 0.001633823 0.04736698
vt 0.001633823 -0.002633095
vt -0.003288776 0.05236143
vt -0.03864413 0.03771681
vt -0.003288716 0.002361476
vt -0.03272232 0.03698921
vt -0.04736695 0.001633823
vt 0.002633065 0.001633823
vt -0.05188745 -0.002420306
vt -0.03724271 -0.03777564
vt -0.00188747 -0.002420247
vt -0.03651395 -0.03331178
vt -0.001158595 -0.04795653
vt -0.001158625 0.002043545
vt 0.002420247 -0.05188739
vt 0.03777558 -0.03724271
vt 0.002420336 -0.001887321
vt 0.03331184 -0.03651392
vt 0.04795662 -0.001158535
vt -0.002043426 -0.001158535
vt 0.05188736 0.002420247
vt 0.03724277 0.03777564
vt 0.001887381 0.002420187
vt 0.03651392 0.03331184
vt 0.001158595 0.04795653
vt 0.001158595 -0.002043486
vt -0.002420276 0.05188733
vt -0.03777561 0.03724265
vt -0.002420217 0.001887381
vt -0.0333119 0.03651392
vt -0.04795653 0.001158655
vt 0.002043515 0.001158595
vt -0.03496315 -0.03552806
vt -0.03576001 -0.03574222
vt 0.03552812 -0.03496313
vt 0.03574225 -0.03575999
vt 0.03496326 0.03552818
vt 0.03576002 0.03574204
vt -0.0355281 0.03496313
vt -0.03574224 0.03576005
vt -0.05267499 -0.00397253
vt -0.03803036 -0.03932774
vt -0.002674989 -0.00397253
vt -0.03738081 -0.03230023
vt -0.00202544 -0.04694498
vt -0.00202547 0.003055096
vt 0.003972404 -0.05267489
vt 0.03932776 -0.03803039
vt 0.003972478 -0.002674818
vt 0.03230033 -0.03738093
vt 0.04694504 -0.002025604
vt -0.003054991 -0.002025485
vt 0.05267497 0.003972411
vt 0.03803038 0.03932786
vt 0.002674975 0.003972411
vt 0.03738079 0.03230023
vt 0.002025492 0.0469451
vt 0.002025448 -0.003054976
vt -0.003972501 0.05267501
vt -0.03932782 0.03803027
vt -0.003972426 0.002675056
vt -0.03230039 0.03738081
vt -0.04694495 0.002025604
vt 0.003055051 0.002025604
vt -0.03672475 -0.03698033
vt -0.0007478744 -0.04855567
vt -0.0007478744 0.00144434
vt 0.03698026 -0.03672487
vt 0.04855569 -0.0007479191
vt -0.001444325 -0.0007477999
vt 0.03672487 0.03698015
vt 0.0007478893 0.04855573
vt 0.0007478893 -0.00144434
vt -0.03698027 0.03672493
vt -0.0485557 0.0007477999
vt 0.00144431 0.0007477999
vt -0.05094689 -0.00106132
vt -0.0363023 -0.03641665
vt -0.0009468794 -0.00106141
vt -0.03582844 -0.03437495
vt -0.0004730821 -0.04901958
vt -0.0004731417 0.0009804368
vt 0.00106135 -0.05094692
vt 0.03641668 -0.0363023
vt 0.001061261 -0.0009469092
vt 0.03437495 -0.03582847
vt 0.04901958 -0.0004731417
vt -0.000980407 -0.0004731417
vt 0.05094689 0.00106138
vt 0.0363023 0.03641671
vt 0.0009469092 0.00106135
vt 0.03582844 0.03437489
vt 0.0004731417 0.04901958
vt 0.0004731417 -0.000980407
vt -0.00106138 0.05094689
vt -0.03641668 0.03630227
vt -0.00106138 0.0009469092
vt -0.03437495 0.03582847
vt -0.0490196 0.0004731119
vt 0.0009803772 0.0004731417
vt -0.03706199 -0.03748292
vt -0.001004517 -0.04816997
vt -0.001004517 0.001830041
vt 0.03748286 -0.03706211
vt 0.04817003 -0.001004517
vt -0.001830041 -0.001004517
vt 0.03706199 0.03748298
vt 0.001004457 0.04816997
vt 0.001004517 -0.001830101
vt -0.03748292 0.03706211
vt -0.04816997 0.001004517
vt 0.001829982 0.001004577
vt -0.03551796 -0.03498498
vt 0.03498501 -0.03551796
vt 0.03551799 0.0349851
vt -0.03498498 0.03551796
vt -0.03795536 -0.03915408
vt 0.03915409 -0.0379554
vt 0.03795537 0.03915408
vt -0.03915408 0.03795534

vn -0.9924691 -0.0809268 -0.09195568
vn -0.6434749 -0.004179218 -0.7654558
vn -0.1708006 0.9850196 0.02374135
vn 0.1708009 -0.9850195 -0.02374063
vn 0.0736919 0.1255725 -0.9893438
vn 0.7389246 0.2323216 -0.632469
vn 0.962539 0.2535359 0.09611596
vn 0.6135448 0.1767883 0.7696159
vn -0.103622 0.04703657 0.9935039
vn -0.7688547 -0.05971251 0.6366293
vn -0.9961542 0.08761703 -3.493591E-07
vn -0.7043874 0.08761707 -0.7043874
vn 1.297843E-06 1 -1.076044E-06
vn 3.350262E-08 -1 4.891094E-08
vn 1.850193E-07 0.08761707 -0.9961542
vn 0.7043874 0.08761705 -0.7043874
vn 0.9961542 0.08761707 -3.568521E-07
vn 0.7043875 0.08761711 0.7043872
vn 4.529397E-07 0.08761714 0.9961542
vn -0.7043873 0.08761717 0.7043874
vn -0.9963402 0.028488 -0.0805904
vn -0.6485402 0.0753509 -0.7574416
vn -0.06241626 0.9973649 0.03697938
vn 0.06241286 -0.9973649 -0.03698291
vn 0.07596172 0.1292639 -0.9886965
vn 0.7527636 0.1586456 -0.6388885
vn 0.9854033 0.1462844 0.08706989
vn 0.6376034 0.09942145 0.7639223
vn -0.08689992 0.04550834 0.9951771
vn -0.7637014 0.01612679 0.6453683
vn -0.9873321 0.1454265 0.0634542
vn -0.7533529 0.04921205 -0.6557725
vn 0.04987802 0.9919412 -0.1164689
vn -0.04987877 -0.991941 0.11647
vn -0.07551021 -0.02491887 -0.9968336
vn 0.6491255 -0.0335413 -0.7599415
vn 0.9960727 0.02839554 -0.08386277
vn 0.7620934 0.1246099 0.6353629
vn 0.08425053 0.1987408 0.9764241
vn -0.6403853 0.2073633 0.7395317
vn -0.9938363 0.1064138 0.03107204
vn -0.7269769 0.07579224 -0.6824662
vn 0.01769132 0.9991857 -0.03626145
vn -0.01769253 -0.9991856 0.03626437
vn -0.0333565 0.0520559 -0.9980869
vn 0.6807131 0.04910889 -0.7309022
vn 0.9969366 0.06867772 -0.0374263
vn 0.730077 0.09929921 0.6761119
vn 0.03645581 0.1230357 0.9917324
vn -0.6776122 0.1259826 0.7245482
vn -0.9930089 0.05195195 -0.1059919
vn -0.6259739 0.1157866 -0.7712004
vn -0.04373165 0.9964818 0.07149456
vn 0.04373143 -0.9964818 -0.07149477
vn 0.1055024 0.162939 -0.9809791
vn 0.7729326 0.1657886 -0.6124453
vn 0.9853455 0.1226656 0.1185219
vn 0.6183118 0.05883117 0.7837279
vn -0.1131657 0.01167861 0.9935075
vn -0.7805967 0.008829095 0.6249726
vn -0.9953445 0.03613648 0.08935058
vn -0.7709326 -0.03185973 -0.6361194
vn -0.06208305 0.9917485 -0.1121636
vn 0.06208973 -0.9917486 0.1121589
vn -0.09810388 -0.03029144 -0.9947151
vn 0.6290038 0.03992241 -0.7763764
vn 0.9844643 0.1376517 -0.1090049
vn 0.7600538 0.2056478 0.6164634
vn 0.08722635 0.20408 0.9750605
vn -0.6398845 0.1338657 0.7567218
vn -0.9742121 0.2254709 0.008591355
vn -0.679952 0.2346467 -0.6946986
vn 0.139281 0.9876931 0.07115507
vn -0.1392822 -0.9876924 -0.07116309
vn 0.01976148 0.1570631 -0.9873909
vn 0.7150483 0.0381674 -0.6980324
vn 0.998619 -0.05239333 0.003877033
vn 0.7043603 -0.06156933 0.7071674
vn 0.004644869 0.0160145 0.9998609
vn -0.6906427 0.1349105 0.7105011
vn -0.9935279 0.1092407 -0.0311225
vn -0.6798523 0.1035077 -0.7260076
vn 0.02169481 0.9997634 0.001542919
vn -0.02169069 -0.9997635 -0.001542395
vn 0.0331843 0.08845395 -0.9955273
vn 0.7278956 0.07289797 -0.6818019
vn 0.9973288 0.06595189 0.03139333
vn 0.6836542 0.07168497 0.7262769
vn -0.02938221 0.08673867 0.9957977
vn -0.7240943 0.1022948 0.6820727
vn -0.9757947 0.2170096 0.02704733
vn -0.7037337 0.1897372 -0.6846596
vn 0.1310031 0.9913082 0.01209306
vn -0.1310047 -0.991308 -0.01209276
vn -0.01271224 0.1021984 -0.9946828
vn 0.6924809 0.005671667 -0.7214139
vn 0.9987511 -0.04329849 -0.02492864
vn 0.7266895 -0.01602627 0.6867791
vn 0.03566861 0.07151262 0.9968018
vn -0.6695244 0.1680394 0.7235329
vn -0.9955119 -0.09353844 0.01437297
vn -0.7099014 -0.1344607 -0.6913468
vn -0.1814784 0.9747682 -0.1299712
vn 0.1814775 -0.9747686 0.1299696
vn -0.01775483 -0.04658794 -0.9987564
vn 0.6754781 0.1186053 -0.727779
vn 0.9637108 0.264351 -0.03714886
vn 0.6781003 0.3052734 0.6685717
vn -0.01404612 0.2174007 0.9759814
vn -0.7072797 0.05220743 0.7050034
vn -0.9944922 -0.07168411 -0.07646348
vn -0.6517745 -0.04583999 -0.7570263
vn -0.1560787 0.9868883 -0.04111968
vn 0.1560768 -0.9868887 0.04111937
vn 0.06473325 0.05750853 -0.9962441
vn 0.7353107 0.1778213 -0.6539861
vn 0.9671422 0.2446207 0.06925799
vn 0.624424 0.2187765 0.749821
vn -0.09208371 0.115428 0.9890384
vn -0.7626608 -0.004884723 0.6467803
vn -0.9914727 0.0967788 0.08726874
vn -0.7682613 0.0353766 -0.6391581
vn 0.001525299 0.9964848 -0.08376011
vn -0.001525448 -0.9964847 0.08376091
vn -0.09493476 0.004395766 -0.9954737
vn 0.634082 0.02198443 -0.7729533
vn 0.9917399 0.07783936 -0.1019461
vn 0.7685288 0.1392415 0.6244801
vn 0.09520199 0.1702224 0.980796
vn -0.6338147 0.1526337 0.7582757

usemtl SpikeMaterial
f 3/3/3 2/2/2 1/1/1
f 1/4/4 2/5/4 4/2/4
f 3/3/3 5/2/5 2/1/2
f 2/5/4 5/6/4 4/2/4
f 3/3/3 6/2/6 5/1/5
f 5/6/4 6/7/4 4/2/4
f 3/3/3 7/2/7 6/1/6
f 6/7/4 7/8/4 4/2/4
f 3/3/3 8/2/8 7/1/7
f 7/8/4 8/9/4 4/2/4
f 3/3/3 9/2/9 8/1/8
f 8/9/4 9/10/4 4/2/4
f 3/3/3 10/2/10 9/1/9
f 9/10/4 10/11/4 4/2/4
f 3/3/3 1/2/1 10/1/10
f 10/11/4 1/4/4 4/2/4
f 13/3/13 12/2/12 11/1/11
f 11/12/14 12/13/14 14/14/14
f 13/3/13 15/2/15 12/1/12
f 12/15/14 15/16/14 14/17/14
f 13/3/13 16/2/16 15/1/15
f 15/18/14 16/19/14 14/20/14
f 13/3/13 17/2/17 16/1/16
f 16/21/14 17/22/14 14/23/14
f 13/3/13 18/2/18 17/1/17
f 17/24/14 18/25/14 14/26/14
f 13/3/13 19/2/19 18/1/18
f 18/27/14 19/28/14 14/29/14
f 13/3/13 20/2/20 19/1/19
f 19/30/14 20/31/14 14/32/14
f 13/3/13 11/2/11 20/1/20
f 20/33/14 11/34/14 14/35/14
f 23/3/23 22/2/22 21/1/21
f 21/4/24 22/5/24 24/2/24
f 23/3/23 25/2/25 22/1/22
f 22/5/24 25/36/24 24/2/24
f 23/3/23 26/2/26 25/1/25
f 25/6/24 26/7/24 24/2/24
f 23/3/23 27/2/27 26/1/26
f 26/7/24 27/37/24 24/2/24
f 23/3/23 28/2/28 27/1/27
f 27/8/24 28/9/24 24/2/24
f 23/3/23 29/2/29 28/1/28
f 28/9/24 29/38/24 24/2/24
f 23/3/23 30/2/30 29/1/29
f 29/10/24 30/11/24 24/2/24
f 23/3/23 21/2/21 30/1/30
f 30/11/24 21/39/24 24/2/24
f 33/3/33 32/2/32 31/1/31
f 31/40/34 32/41/34 34/42/34
f 33/3/33 35/2/35 32/1/32
f 32/43/34 35/44/34 34/45/34
f 33/3/33 36/2/36 35/1/35
f 35/46/34 36/47/34 34/48/34
f 33/3/33 37/2/37 36/1/36
f 36/49/34 37/50/34 34/51/34
f 33/3/33 38/2/38 37/1/37
f 37/52/34 38/53/34 34/54/34
f 33/3/33 39/2/39 38/1/38
f 38/55/34 39/56/34 34/57/34
f 33/3/33 40/2/40 39/1/39
f 39/58/34 40/59/34 34/60/34
f 33/3/33 31/2/31 40/1/40
f 40/61/34 31/62/34 34/63/34
f 43/3/43 42/2/42 41/1/41
f 41/64/44 42/65/44 44/66/44
f 43/3/43 45/2/45 42/1/42
f 42/67/44 45/68/44 44/69/44
f 43/3/43 46/2/46 45/1/45
f 45/70/44 46/71/44 44/72/44
f 43/3/43 47/2/47 46/1/46
f 46/73/44 47/74/44 44/75/44
f 43/3/43 48/2/48 47/1/47
f 47/76/44 48/77/44 44/78/44
f 43/3/43 49/2/49 48/1/48
f 48/79/44 49/80/44 44/81/44
f 43/3/43 50/2/50 49/1/49
f 49/82/44 50/83/44 44/84/44
f 43/3/43 41/2/41 50/1/50
f 50/85/44 41/86/44 44/87/44
f 53/3/53 52/2/52 51/1/51
f 51/39/54 52/88/54 54/2/54
f 53/3/53 55/2/55 52/1/52
f 52/89/54 55/6/54 54/2/54
f 53/3/53 56/2/56 55/1/55
f 55/36/54 56/90/54 54/2/54
f 53/3/53 57/2/57 56/1/56
f 56/91/54 57/8/54 54/2/54
f 53/3/53 58/2/58 57/1/57
f 57/37/54 58/92/54 54/2/54
f 53/3/53 59/2/59 58/1/58
f 58/93/54 59/10/54 54/2/54
f 53/3/53 60/2/60 59/1/59
f 59/38/54 60/94/54 54/2/54
f 53/3/53 51/2/51 60/1/60
f 60/95/54 51/4/54 54/2/54
f 63/3/63 62/2/62 61/1/61
f 61/96/64 62/97/64 64/98/64
f 63/3/63 65/2/65 62/1/62
f 62/99/64 65/100/64 64/101/64
f 63/3/63 66/2/66 65/1/65
f 65/102/64 66/103/64 64/104/64
f 63/3/63 67/2/67 66/1/66
f 66/105/64 67/106/64 64/107/64
f 63/3/63 68/2/68 67/1/67
f 67/108/64 68/109/64 64/110/64
f 63/3/63 69/2/69 68/1/68
f 68/111/64 69/112/64 64/113/64
f 63/3/63 70/2/70 69/1/69
f 69/114/64 70/115/64 64/116/64
f 63/3/63 61/2/61 70/1/70
f 70/117/64 61/118/64 64/119/64
f 73/3/73 72/2/72 71/1/71
f 71/12/74 72/120/74 74/14/74
f 73/3/73 75/2/75 72/1/72
f 72/15/74 75/121/74 74/122/74
f 73/3/73 76/2/76 75/1/75
f 75/18/74 76/123/74 74/20/74
f 73/3/73 77/2/77 76/1/76
f 76/21/74 77/124/74 74/125/74
f 73/3/73 78/2/78 77/1/77
f 77/24/74 78/126/74 74/26/74
f 73/3/73 79/2/79 78/1/78
f 78/27/74 79/127/74 74/128/74
f 73/3/73 80/2/80 79/1/79
f 79/30/74 80/129/74 74/32/74
f 73/3/73 71/2/71 80/1/80
f 80/33/74 71/130/74 74/131/74
f 83/3/83 82/2/82 81/1/81
f 81/132/84 82/133/84 84/134/84
f 83/3/83 85/2/85 82/1/82
f 82/135/84 85/136/84 84/137/84
f 83/3/83 86/2/86 85/1/85
f 85/138/84 86/139/84 84/140/84
f 83/3/83 87/2/87 86/1/86
f 86/141/84 87/142/84 84/143/84
f 83/3/83 88/2/88 87/1/87
f 87/144/84 88/145/84 84/146/84
f 83/3/83 89/2/89 88/1/88
f 88/147/84 89/148/84 84/149/84
f 83/3/83 90/2/90 89/1/89
f 89/150/84 90/151/84 84/152/84
f 83/3/83 81/2/81 90/1/90
f 90/153/84 81/154/84 84/155/84
f 93/3/93 92/2/92 91/1/91
f 91/64/94 92/156/94 94/66/94
f 93/3/93 95/2/95 92/1/92
f 92/15/94 95/157/94 94/158/94
f 93/3/93 96/2/96 95/1/95
f 95/70/94 96/159/94 94/72/94
f 93/3/93 97/2/97 96/1/96
f 96/21/94 97/160/94 94/161/94
f 93/3/93 98/2/98 97/1/97
f 97/76/94 98/162/94 94/78/94
f 93/3/93 99/2/99 98/1/98
f 98/27/94 99/163/94 94/164/94
f 93/3/93 100/2/100 99/1/99
f 99/82/94 100/165/94 94/84/94
f 93/3/93 91/2/91 100/1/100
f 100/33/94 91/166/94 94/167/94
f 103/3/103 102/2/102 101/1/101
f 101/64/104 102/65/104 104/66/104
f 103/3/103 105/2/105 102/1/102
f 102/67/104 105/68/104 104/69/104
f 103/3/103 106/2/106 105/1/105
f 105/70/104 106/71/104 104/72/104
f 103/3/103 107/2/107 106/1/106
f 106/73/104 107/74/104 104/75/104
f 103/3/103 108/2/108 107/1/107
f 107/76/104 108/77/104 104/78/104
f 103/3/103 109/2/109 108/1/108
f 108/79/104 109/80/104 104/81/104
f 103/3/103 110/2/110 109/1/109
f 109/82/104 110/83/104 104/84/104
f 103/3/103 101/2/101 110/1/110
f 110/85/104 101/86/104 104/87/104
f 113/3/113 112/2/112 111/1/111
f 111/4/114 112/89/114 114/2/114
f 113/3/113 115/2/115 112/1/112
f 112/168/114 115/36/114 114/2/114
f 113/3/113 116/2/116 115/1/115
f 115/6/114 116/91/114 114/2/114
f 113/3/113 117/2/117 116/1/116
f 116/169/114 117/37/114 114/2/114
f 113/3/113 118/2/118 117/1/117
f 117/8/114 118/93/114 114/2/114
f 113/3/113 119/2/119 118/1/118
f 118/170/114 119/38/114 114/2/114
f 113/3/113 120/2/120 119/1/119
f 119/10/114 120/95/114 114/2/114
f 113/3/113 111/2/111 120/1/120
f 120/171/114 111/39/114 114/2/114
f 123/3/123 122/2/122 121/1/121
f 121/96/124 122/172/124 124/98/124
f 123/3/123 125/2/125 122/1/122
f 122/99/124 125/44/124 124/45/124
f 123/3/123 126/2/126 125/1/125
f 125/102/124 126/173/124 124/104/124
f 123/3/123 127/2/127 126/1/126
f 126/105/124 127/50/124 124/51/124
f 123/3/123 128/2/128 127/1/127
f 127/108/124 128/174/124 124/110/124
f 123/3/123 129/2/129 128/1/128
f 128/111/124 129/56/124 124/57/124
f 123/3/123 130/2/130 129/1/129
f 129/114/124 130/175/124 124/116/124
f 123/3/123 121/2/121 130/1/130
f 130/117/124 121/62/124 124/63/124

