# ProBuilder 6.0.4
# https://unity3d.com/unity/features/worldbuilding/probuilder
# 12/28/2024 7:42:03 PM

mtllib ./Door.mtl
o Door

g Door
v 0.02826476 1.000102 0.44761
v 0.02826476 -1.000102 0.44761
v -0.02826452 -1.000102 0.44761
v -0.02826476 1.000102 0.44761
v -0.02826476 -1.000102 -0.4476098
v -0.02826476 1.000102 -0.4476098
v 0.02826476 -1.000102 -0.4476098
v 0.02826476 1.000102 -0.4476098

vt 0.02826476 1.000102
vt 0.02826476 -1.000102
vt -0.02826452 -1.000102
vt -0.02826476 1.000102
vt 0.4476099 1.000102
vt 0.4476099 -1.000102
vt -0.4476099 -1.000102
vt -0.4476099 1.000102
vt -0.02826476 -0.4476099
vt -0.02826476 0.4476099
vt 0.02826476 0.4476099
vt 0.02826476 -0.4476099

vn 0 0 1
vn -1 -6.052978E-08 1.352427E-07
vn 0 0 -1
vn 1 0 0
vn 0 1 0
vn 0 -1 0

usemtl DoorsProjectGeneralMaterialURP
f 4/4/1 3/3/1 2/2/1 1/1/1
f 6/8/2 5/7/2 3/6/2 4/5/2
f 8/4/3 7/3/3 5/2/3 6/1/3
f 1/8/4 2/7/4 7/6/4 8/5/4
f 6/12/5 4/11/5 1/10/5 8/9/5
f 3/10/6 5/9/6 7/12/6 2/11/6

