# ProBuilder 6.0.4
# https://unity3d.com/unity/features/worldbuilding/probuilder
# 2/13/2025 8:51:13 PM

mtllib ./Door_Wall.mtl
o Door_Wall

g Door_Wall
v -1.210149 -2.503395E-06 -18.09569
v -1.352406 -2.503395E-06 -18.09569
v -1.210149 2.152707 -18.09569
v -1.352406 2.152707 -18.09569
v -1.352406 -2.503395E-06 -22.03001
v -1.352406 2.152707 -22.03001
v -1.210149 -2.503395E-06 -22.03
v -1.210149 2.152707 -22.03
v -1.210148 -2.503395E-06 10.3762
v -1.352406 -2.503395E-06 10.3762
v -1.210148 2.152708 10.3762
v -1.352406 2.152708 10.3762
v -1.352406 -2.503395E-06 9.625134
v -1.352406 2.152708 9.625134
v -1.210148 -2.503395E-06 9.625134
v -1.210148 2.152708 9.625134
v -1.210148 -2.503395E-06 17.985
v -1.352406 -2.503395E-06 17.985
v -1.210148 2.152708 17.985
v -1.352406 2.152708 17.985
v -1.352406 -2.503395E-06 11.61925
v -1.352406 2.152708 11.61925
v -1.210148 -2.503395E-06 11.61925
v -1.210148 2.152708 11.61925
v -1.210148 2.151609 17.985
v -1.352406 2.151609 17.985
v -1.210148 2.474996 17.985
v -1.352406 2.474996 17.985
v -1.352406 2.151609 -22.02792
v -1.352406 2.474996 -22.02792
v -1.210148 2.151609 -22.02792
v -1.210148 2.474996 -22.02792
v -1.210148 -2.503395E-06 8.376314
v -1.352406 -2.503395E-06 8.376314
v -1.210148 2.152708 8.376314
v -1.352406 2.152708 8.376314
v -1.352406 -2.503395E-06 7.625248
v -1.352406 2.152708 7.625248
v -1.210148 -2.503395E-06 7.625248
v -1.210148 2.152708 7.625248
v -1.210148 -2.503395E-06 4.465313
v -1.352406 -2.503395E-06 4.465315
v -1.210148 2.152708 4.465313
v -1.352406 2.152708 4.465315
v -1.352406 -2.503395E-06 3.566294
v -1.352406 2.152708 3.566294
v -1.210148 -2.503395E-06 3.566292
v -1.210148 2.152708 3.566292
v -1.210148 -2.503395E-06 1.431314
v -1.352406 -2.503395E-06 1.431314
v -1.210148 2.152708 1.431314
v -1.352406 2.152708 1.431314
v -1.352406 -2.503395E-06 0.6221504
v -1.352406 2.152708 0.6221504
v -1.210148 -2.503395E-06 0.6221504
v -1.210148 2.152708 0.6221504
v -1.210148 -2.503395E-06 -0.6056843
v -1.352406 -2.503395E-06 -0.6056862
v -1.210148 2.152708 -0.6056843
v -1.352406 2.152708 -0.6056862
v -1.352406 -2.503395E-06 -1.386103
v -1.352406 2.152708 -1.386103
v -1.210148 -2.503395E-06 -1.386103
v -1.210148 2.152708 -1.386103
v -1.210148 -2.503395E-06 -2.585684
v -1.352406 -2.503395E-06 -2.585686
v -1.210148 2.152708 -2.585684
v -1.352406 2.152708 -2.585686
v -1.352406 -2.503395E-06 -3.388453
v -1.352406 2.152708 -3.388453
v -1.210148 -2.503395E-06 -3.388453
v -1.210148 2.152708 -3.388453
v -1.210148 -2.503395E-06 -4.622686
v -1.352406 -2.503395E-06 -4.622686
v -1.210148 2.152708 -4.622686
v -1.352406 2.152708 -4.622686
v -1.352406 -2.503395E-06 -5.373753
v -1.352406 2.152708 -5.373753
v -1.210148 -2.503395E-06 -5.373751
v -1.210148 2.152708 -5.373751
v -1.210148 -2.503395E-06 -6.628687
v -1.352406 -2.503395E-06 -6.628685
v -1.210148 2.152708 -6.628687
v -1.352406 2.152708 -6.628685
v -1.352406 -2.503395E-06 -7.379753
v -1.352406 2.152708 -7.379753
v -1.210148 -2.503395E-06 -7.379751
v -1.210148 2.152708 -7.379751
v -1.210148 -2.503395E-06 -8.627684
v -1.352406 -2.503395E-06 -8.627686
v -1.210148 2.152708 -8.627684
v -1.352406 2.152708 -8.627686
v -1.352406 -2.503395E-06 -9.378752
v -1.352406 2.152708 -9.378752
v -1.210148 -2.503395E-06 -9.378752
v -1.210148 2.152708 -9.378752
v -1.210148 -2.503395E-06 -11.27868
v -1.352406 -2.503395E-06 -11.27868
v -1.210148 2.152708 -11.27868
v -1.352406 2.152708 -11.27868
v -1.352406 -2.503395E-06 -12.18021
v -1.352406 2.152708 -12.18021
v -1.210148 -2.503395E-06 -12.18021
v -1.210148 2.152708 -12.18021
v -1.210148 -2.503395E-06 -13.42069
v -1.352406 -2.503395E-06 -13.42069
v -1.210148 2.152708 -13.42069
v -1.352406 2.152708 -13.42069
v -1.352406 -2.503395E-06 -14.17175
v -1.352406 2.152708 -14.17175
v -1.210148 -2.503395E-06 -14.17175
v -1.210148 2.152708 -14.17175
v -1.210148 -2.503395E-06 -15.42269
v -1.352406 -2.503395E-06 -15.42269
v -1.210148 2.152708 -15.42269
v -1.352406 2.152708 -15.42269
v -1.352406 -2.503395E-06 -16.17375
v -1.352406 2.152708 -16.17375
v -1.210148 -2.503395E-06 -16.17375
v -1.210148 2.152708 -16.17375

vt 0.01285453 -1.109384
vt -0.129403 -1.109384
vt 0.01285453 1.043325
vt -0.129403 1.043325
vt 0.3843126 -1.109384
vt -3.550007 -1.109384
vt 0.3843126 1.043325
vt -3.550007 1.043325
vt 0.1294531 -1.109384
vt -0.01280424 -1.109384
vt 0.1294532 1.043325
vt -0.01280436 1.043325
vt 3.550005 -1.109384
vt -0.3843136 -1.109384
vt 3.550005 1.043325
vt -0.3843136 1.043325
vt -0.01285195 0.3843136
vt 0.1294056 0.3843126
vt -0.01285195 -3.550005
vt 0.1294056 -3.550007
vt 0.01285183 -3.550005
vt -0.1294055 -3.550007
vt 0.01285195 0.3843136
vt -0.1294056 0.3843126
vt -0.3667545 -1.109384
vt -0.3667545 1.043325
vt 0.3667545 -1.109384
vt 0.3667545 1.043325
vt -0.01285195 -0.3667545
vt 0.1294056 -0.3667545
vt 0.01285195 -0.3667545
vt -0.1294056 -0.3667545
vt 5.999001 -1.109384
vt 5.999001 1.043325
vt -5.999001 -1.109384
vt -5.999001 1.043325
vt -0.01285195 5.999001
vt 0.1294056 5.999001
vt 0.01285195 5.999001
vt -0.1294056 5.999001
vt 0.01285195 -1.148389
vt -0.1294056 -1.148389
vt 0.01285195 -0.825
vt -0.1294056 -0.825
vt 5.999001 -1.148389
vt -34.01392 -1.148389
vt 5.999001 -0.825
vt -34.01392 -0.825
vt 0.1294056 -1.148389
vt -0.01285195 -1.148389
vt 0.1294056 -0.825
vt -0.01285195 -0.825
vt 34.01392 -1.148389
vt -5.999001 -1.148389
vt 34.01392 -0.825
vt -5.999001 -0.825
vt -0.01285195 -34.01392
vt 0.1294056 -34.01392
vt 0.01285195 -34.01392
vt -0.1294056 -34.01392
vt -0.5147076 -1.109384
vt -0.5147076 1.043325
vt 0.5147095 -1.109384
vt 0.5147095 1.043325
vt -0.01285195 -0.5147114
vt 0.1294056 -0.5147095
vt 0.0128519 -0.5147114
vt -0.1294057 -0.5147095
vt -0.4248524 -1.109384
vt -0.4248524 1.043325
vt 0.4248524 -1.109384
vt 0.4248524 1.043325
vt -0.01285208 -0.4248524
vt 0.1294056 -0.4248524
vt 0.01285195 -0.4248524
vt -0.1294056 -0.4248524
vt -0.3961029 -1.109384
vt -0.3961029 1.043325
vt 0.3961029 -1.109384
vt 0.3961029 1.043325
vt -0.01285208 -0.3961029
vt 0.1294056 -0.3961029
vt 0.01285195 -0.3961029
vt -0.1294056 -0.3961029
vt -0.4184542 -1.109384
vt -0.4184542 1.043325
vt 0.4184551 -1.109384
vt 0.4184551 1.043325
vt -0.01285208 -0.4184551
vt 0.1294056 -0.4184551
vt 0.01285195 -0.4184551
vt -0.1294056 -0.4184551
vt -0.5172138 -1.109384
vt -0.5172138 1.043325
vt 0.5172148 -1.109384
vt 0.5172148 1.043325
vt -0.01285195 -0.5172148
vt 0.1294056 -0.5172148
vt 0.01285195 -0.5172148
vt -0.1294056 -0.5172148

vn -6.703856E-06 0 1
vn -1 0 -3.029985E-08
vn 1.340773E-05 7.424722E-13 -1
vn 1 -5.53764E-08 -3.029986E-08
vn 0 1 0
vn 0 -1 0

usemtl ProBuilderDefault
f 3/3/1 4/4/1 2/2/1 1/1/1
f 4/7/2 6/8/2 5/6/2 2/5/2
f 6/11/3 8/12/3 7/10/3 5/9/3
f 8/15/4 3/16/4 1/14/4 7/13/4
f 8/19/5 6/20/5 4/18/5 3/17/5
f 1/23/6 2/24/6 5/22/6 7/21/6
f 11/3/1 12/4/1 10/2/1 9/1/1
f 12/7/2 14/26/2 13/25/2 10/5/2
f 14/11/3 16/12/3 15/10/3 13/9/3
f 16/28/4 11/16/4 9/14/4 15/27/4
f 16/29/5 14/30/5 12/18/5 11/17/5
f 9/23/6 10/24/6 13/32/6 15/31/6
f 19/3/1 20/4/1 18/2/1 17/1/1
f 20/34/2 22/26/2 21/25/2 18/33/2
f 22/11/3 24/12/3 23/10/3 21/9/3
f 24/28/4 19/36/4 17/35/4 23/27/4
f 24/29/5 22/30/5 20/38/5 19/37/5
f 17/39/6 18/40/6 21/32/6 23/31/6
f 27/43/1 28/44/1 26/42/1 25/41/1
f 28/47/2 30/48/2 29/46/2 26/45/2
f 30/51/3 32/52/3 31/50/3 29/49/3
f 32/55/4 27/56/4 25/54/4 31/53/4
f 32/57/5 30/58/5 28/38/5 27/37/5
f 25/39/6 26/40/6 29/60/6 31/59/6
f 35/3/1 36/4/1 34/2/1 33/1/1
f 36/7/2 38/26/2 37/25/2 34/5/2
f 38/11/3 40/12/3 39/10/3 37/9/3
f 40/28/4 35/16/4 33/14/4 39/27/4
f 40/29/5 38/30/5 36/18/5 35/17/5
f 33/23/6 34/24/6 37/32/6 39/31/6
f 43/3/1 44/4/1 42/2/1 41/1/1
f 44/7/2 46/62/2 45/61/2 42/5/2
f 46/11/3 48/12/3 47/10/3 45/9/3
f 48/64/4 43/16/4 41/14/4 47/63/4
f 48/65/5 46/66/5 44/18/5 43/17/5
f 41/23/6 42/24/6 45/68/6 47/67/6
f 51/3/1 52/4/1 50/2/1 49/1/1
f 52/7/2 54/70/2 53/69/2 50/5/2
f 54/11/3 56/12/3 55/10/3 53/9/3
f 56/72/4 51/16/4 49/14/4 55/71/4
f 56/73/5 54/74/5 52/18/5 51/17/5
f 49/23/6 50/24/6 53/76/6 55/75/6
f 59/3/1 60/4/1 58/2/1 57/1/1
f 60/7/2 62/78/2 61/77/2 58/5/2
f 62/11/3 64/12/3 63/10/3 61/9/3
f 64/80/4 59/16/4 57/14/4 63/79/4
f 64/81/5 62/82/5 60/18/5 59/17/5
f 57/23/6 58/24/6 61/84/6 63/83/6
f 67/3/1 68/4/1 66/2/1 65/1/1
f 68/7/2 70/86/2 69/85/2 66/5/2
f 70/11/3 72/12/3 71/10/3 69/9/3
f 72/88/4 67/16/4 65/14/4 71/87/4
f 72/89/5 70/90/5 68/18/5 67/17/5
f 65/23/6 66/24/6 69/92/6 71/91/6
f 75/3/1 76/4/1 74/2/1 73/1/1
f 76/7/2 78/26/2 77/25/2 74/5/2
f 78/11/3 80/12/3 79/10/3 77/9/3
f 80/28/4 75/16/4 73/14/4 79/27/4
f 80/29/5 78/30/5 76/18/5 75/17/5
f 73/23/6 74/24/6 77/32/6 79/31/6
f 83/3/1 84/4/1 82/2/1 81/1/1
f 84/7/2 86/26/2 85/25/2 82/5/2
f 86/11/3 88/12/3 87/10/3 85/9/3
f 88/28/4 83/16/4 81/14/4 87/27/4
f 88/29/5 86/30/5 84/18/5 83/17/5
f 81/23/6 82/24/6 85/32/6 87/31/6
f 91/3/1 92/4/1 90/2/1 89/1/1
f 92/7/2 94/26/2 93/25/2 90/5/2
f 94/11/3 96/12/3 95/10/3 93/9/3
f 96/28/4 91/16/4 89/14/4 95/27/4
f 96/29/5 94/30/5 92/18/5 91/17/5
f 89/23/6 90/24/6 93/32/6 95/31/6
f 99/3/1 100/4/1 98/2/1 97/1/1
f 100/7/2 102/94/2 101/93/2 98/5/2
f 102/11/3 104/12/3 103/10/3 101/9/3
f 104/96/4 99/16/4 97/14/4 103/95/4
f 104/97/5 102/98/5 100/18/5 99/17/5
f 97/23/6 98/24/6 101/100/6 103/99/6
f 107/3/1 108/4/1 106/2/1 105/1/1
f 108/7/2 110/26/2 109/25/2 106/5/2
f 110/11/3 112/12/3 111/10/3 109/9/3
f 112/28/4 107/16/4 105/14/4 111/27/4
f 112/29/5 110/30/5 108/18/5 107/17/5
f 105/23/6 106/24/6 109/32/6 111/31/6
f 115/3/1 116/4/1 114/2/1 113/1/1
f 116/7/2 118/26/2 117/25/2 114/5/2
f 118/11/3 120/12/3 119/10/3 117/9/3
f 120/28/4 115/16/4 113/14/4 119/27/4
f 120/29/5 118/30/5 116/18/5 115/17/5
f 113/23/6 114/24/6 117/32/6 119/31/6

