# ProBuilder 6.0.4
# https://unity3d.com/unity/features/worldbuilding/probuilder
# 1/3/2025 3:02:41 PM

mtllib ./wall1.mtl
o wall1

g wall1
v 13 0 -22
v -18 0 -22
v 13 11 -22
v -18 11 -22
v -18 0 -23
v -18 11 -23
v 13 0 -23
v 13 11 -23

vt 6.5 -0.5
vt -24.5 -0.5
vt 6.5 10.5
vt -24.5 10.5
vt -0.5 -0.5
vt -1.5 -0.5
vt -0.5 10.5
vt -1.5 10.5
vt 24.5 -0.5
vt -6.5 -0.5
vt 24.5 10.5
vt -6.5 10.5
vt 1.5 -0.5
vt 0.5 -0.5
vt 1.5 10.5
vt 0.5 10.5
vt -6.5 -1.5
vt 24.5 -1.5
vt 6.5 -1.5
vt -24.5 -1.5

vn 0 0 1
vn -1 0 0
vn 0 0 -1
vn 1 0 0
vn 0 1 0
vn 0 -1 0

usemtl Walls
f 3/3/1 4/4/1 2/2/1 1/1/1
f 4/7/2 6/8/2 5/6/2 2/5/2
f 6/11/3 8/12/3 7/10/3 5/9/3
f 8/15/4 3/16/4 1/14/4 7/13/4
f 8/17/5 6/18/5 4/9/5 3/10/5
f 1/1/6 2/2/6 5/20/6 7/19/6

