# ProBuilder 6.0.4
# https://unity3d.com/unity/features/worldbuilding/probuilder
# 2/13/2025 10:54:23 PM

mtllib ./Trigger-SRD.mtl
o Trigger-SRD

g Trigger-SRD
v 1.151546 -0.01292038 1.658871
v -1.526639 -0.01292038 1.658871
v 1.151546 3.135 1.658871
v -1.526639 3.135 1.658871
v -1.526639 -0.01292038 -1.662546
v -1.526639 3.135 -1.662546
v 1.151546 -0.01292038 -1.662546
v 1.151546 3.135 -1.662546

vt 1.151546 -1.56492
vt -1.526639 -1.56492
vt 1.151546 1.583
vt -1.526639 1.583
vt 1.658871 -1.56492
vt -1.662546 -1.56492
vt 1.658871 1.583
vt -1.662546 1.583
vt 1.526639 -1.56492
vt -1.151546 -1.56492
vt 1.526639 1.583
vt -1.151546 1.583
vt 1.662546 -1.56492
vt -1.658871 -1.56492
vt 1.662546 1.583
vt -1.658871 1.583
vt -1.151546 1.658871
vt 1.526639 1.658871
vt -1.151546 -1.662546
vt 1.526639 -1.662546
vt 1.151546 -1.662546
vt -1.526639 -1.662546
vt 1.151546 1.658871
vt -1.526639 1.658871

vn 0 0 1
vn -1 0 0
vn 0 0 -1
vn 1 0 0
vn 0 1 0
vn 0 -1 0

usemtl AutomaticTriggerMaterialURP
f 3/3/1 4/4/1 2/2/1 1/1/1
f 4/7/2 6/8/2 5/6/2 2/5/2
f 6/11/3 8/12/3 7/10/3 5/9/3
f 8/15/4 3/16/4 1/14/4 7/13/4
f 8/19/5 6/20/5 4/18/5 3/17/5
f 1/23/6 2/24/6 5/22/6 7/21/6

