# ProBuilder 6.0.4
# https://unity3d.com/unity/features/worldbuilding/probuilder
# 12/27/2024 7:51:50 PM

mtllib ./LeverHandle.mtl
o LeverHandle

g LeverHandle
v -0.09098633 0.6446 7.024731E-09
v -0.09098621 0.9873851 2.809893E-08
v -0.08312014 0.6446 0.03459001
v -0.08312016 0.9873851 0.03459001
v -0.06088173 0.6446 0.06319909
v -0.06088201 0.9873851 0.063199
v -0.0281163 0.6446 0.08088047
v -0.02811616 0.9873851 0.08088046
v 0.009510688 0.6446 0.08457688
v 0.009510457 0.9873851 0.08457682
v 0.0454932 0.6446 0.07364919
v 0.04549286 0.9873851 0.07364915
v 0.07360953 0.6446 0.04998688
v 0.07360921 0.9873851 0.04998684
v 0.08899811 0.6446 0.01768138
v 0.08899821 0.9873851 0.01768135
v 0.08899809 0.6446 -0.01768138
v 0.08899821 0.9873851 -0.01768143
v 0.07360953 0.6446 -0.04998686
v 0.07360921 0.9873851 -0.04998693
v 0.0454932 0.6446 -0.07364918
v 0.04549286 0.9873851 -0.07364924
v 0.009510675 0.6446 -0.08457686
v 0.009510457 0.9873851 -0.0845769
v -0.02811632 0.6446 -0.08088045
v -0.0281167 0.9873851 -0.0808804
v -0.06088174 0.6446 -0.06319906
v -0.06088201 0.9873851 -0.06319909
v -0.08312015 0.6446 -0.03458998
v -0.08312016 0.9873851 -0.03458995
v 2.384045E-08 0.5452098 7.024732E-09
v -3.414457E-07 1.009628 2.809893E-08
v -0.07002116 0 5.406084E-09
v -0.07002107 0.9971818 2.162434E-08
v -0.06396752 0 0.02661974
v -0.06396753 0.9971818 0.02661974
v -0.0468533 0 0.04863667
v -0.04685352 0.9971818 0.04863661
v -0.02163773 0 0.06224389
v -0.02163761 0.9971818 0.06224388
v 0.007319206 0 0.06508857
v 0.007319028 0.9971818 0.06508853
v 0.03501058 0 0.05667885
v 0.03501032 0.9971818 0.05667882
v 0.05664832 0 0.03846884
v 0.05664807 0.9971818 0.03846881
v 0.06849103 0 0.01360722
v 0.06849111 0.9971818 0.01360719
v 0.06849102 0 -0.01360722
v 0.06849111 0.9971818 -0.01360725
v 0.05664832 0 -0.03846882
v 0.05664807 0.9971818 -0.03846887
v 0.03501058 0 -0.05667884
v 0.03501032 0.9971818 -0.05667889
v 0.007319196 0 -0.06508856
v 0.007319028 0.9971818 -0.06508859
v -0.02163774 0 -0.06224387
v -0.02163803 0.9971818 -0.06224384
v -0.04685331 0 -0.04863665
v -0.04685352 0.9971818 -0.04863667
v -0.06396753 0 -0.02661971
v -0.06396753 0.9971818 -0.02661969
v 1.179373E-09 0 5.406084E-09
v -2.79937E-07 0.9971818 2.162434E-08

vt -0.02139935 2.584342
vt -0.0213993 3.958643
vt 0.01622425 2.584342
vt 0.01622424 3.958643
vt -0.02513925 2.584342
vt -0.02513926 3.958643
vt 0.01329312 2.584342
vt 0.01329287 3.958643
vt -0.02499359 2.584342
vt -0.0249939 3.958643
vt 0.01449521 2.584342
vt 0.01449534 3.958643
vt 0.01880908 2.584342
vt 0.01880882 3.958643
vt -0.0164151 2.584342
vt -0.01641532 3.958643
vt 0.02346984 2.584342
vt 0.02346951 3.958643
vt -0.01338058 2.584342
vt -0.01338083 3.958643
vt 0.02559539 2.584342
vt 0.02559515 3.958643
vt -0.01428961 2.584342
vt -0.01428972 3.958643
vt 0.02366305 2.584342
vt 0.02366313 3.958643
vt -0.01875329 2.584342
vt -0.01875325 3.958643
vt -0.02366303 2.584342
vt -0.02366304 3.958643
vt -0.02559539 2.584342
vt -0.02559508 3.958643
vt -0.02346987 2.584342
vt -0.0234695 3.958643
vt 0.02129104 2.584342
vt 0.02129145 3.958643
vt 0.02499361 2.584342
vt 0.02499384 3.958643
vt 0.02513926 2.584342
vt 0.02513929 3.958643
vt -0.02139935 2.53679
vt 1.287219E-08 2.127353
vt 0.01622425 2.53679
vt -2.615789 -0.4534548
vt -2.747185 -0.4534548
vt -2.621917 -0.4163336
vt -0.02513924 2.538684
vt 2.140066E-08 2.129697
vt 0.01329312 2.538684
vt -2.333847 -1.332227
vt -2.458043 -1.372796
vt -2.352587 -1.298674
vt -0.02499359 2.540993
vt 2.579069E-08 2.132555
vt 0.01449521 2.540993
vt -1.632395 -2.185994
vt -1.72887 -2.271479
vt -1.663818 -2.162078
vt -0.02129102 2.542251
vt 2.589298E-08 2.134111
vt 0.01880908 2.542251
vt -0.0212909 2.751045
vt -3.57496E-07 2.876533
vt 0.0188088 2.751045
vt -0.0164151 2.541815
vt 2.202949E-08 2.13357
vt 0.02346984 2.541815
vt 1.09969 -2.513008
vt 1.134364 -2.635068
vt 1.063056 -2.528779
vt -0.01338059 2.539894
vt 1.45488E-08 2.131195
vt 0.02559538 2.539894
vt 2.074468 -1.74142
vt 2.162903 -1.833948
vt 2.049261 -1.771148
vt -0.01428961 2.537574
vt 4.147617E-09 2.128324
vt 0.02366305 2.537574
vt 2.527338 -0.8551303
vt 2.644707 -0.9106559
vt 2.514982 -0.8910154
vt -0.01875329 2.536507
vt 0.01875322 2.536507
vt 2.649913 0.01875322
vt 2.779769 2.980233E-08
vt 2.649913 -0.01875331
vt -0.02366303 2.537574
vt 0.01428961 2.537574
vt 2.514981 0.8910152
vt 2.644706 0.9106558
vt 2.527337 0.8551301
vt -0.02559539 2.539894
vt 0.01338059 2.539894
vt 2.049259 1.771147
vt 2.162901 1.833948
vt 2.074466 1.741419
vt -0.02346987 2.541815
vt 0.01641509 2.541815
vt 1.063053 2.528777
vt 1.134362 2.635067
vt 1.099688 2.513006
vt -0.01880906 2.542251
vt 0.02129104 2.542251
vt -0.01880899 2.751044
vt 0.02129129 2.751044
vt -0.0144952 2.540993
vt 0.02499361 2.540993
vt -1.663823 2.162069
vt -1.728875 2.271471
vt -1.632401 2.185985
vt -0.0132931 2.538684
vt 0.02513926 2.538684
vt -2.352589 1.298668
vt -2.458045 1.372791
vt -2.333849 1.332222
vt -0.01622423 2.53679
vt 0.02139935 2.53679
vt -2.621917 0.4163336
vt -2.747185 0.4534549
vt -2.615789 0.4534549
vt -0.02139935 0.8883775
vt -0.0213993 2.262678
vt 0.01622424 0.8883775
vt 0.01622424 2.262678
vt -0.02513951 0.8883775
vt -0.02513928 2.262678
vt 0.0132931 0.8883775
vt 0.01329309 2.262678
vt -0.02499378 0.8883775
vt -0.02499385 2.262678
vt 0.01449513 0.8883775
vt 0.0144955 2.262678
vt 0.01880905 0.8883775
vt 0.0188088 2.262678
vt -0.01641536 0.8883775
vt -0.01641534 2.262678
vt 0.02346981 0.8883775
vt 0.02346972 2.262678
vt -0.01338085 0.8883775
vt -0.01338085 2.262678
vt 0.02559537 0.8883775
vt 0.02559537 2.262678
vt -0.01428983 0.8883775
vt -0.01428971 2.262678
vt 0.02366299 0.8883775
vt 0.02366331 2.262678
vt -0.01875329 0.8883777
vt -0.01875325 2.262678
vt -0.02366314 0.8883777
vt -0.02366291 2.262678
vt -0.02559538 0.8883775
vt -0.02559507 2.262678
vt -0.02346984 0.8883775
vt -0.02346948 2.262678
vt 0.02129107 0.8883775
vt 0.02129147 2.262678
vt 0.02499362 0.8883777
vt 0.02499386 2.262678
vt 0.02513929 0.8883777
vt 0.02513931 2.262678
vt -0.09650207 7.450581E-09
vt -3.72529E-09 7.450581E-09
vt -0.08815904 0.0366869
vt 0.09650195 3.166497E-08
vt 0.08815904 0.0366869
vt -0.06457248 0.06703031
vt 0.06457278 0.06703022
vt -0.02982078 0.08578355
vt 0.02982062 0.08578356
vt 0.01008722 0.08970405
vt -0.01008697 0.08970399
vt 0.04824904 0.07810688
vt -0.04825068 0.07811385
vt 0.07807182 0.05301715
vt -0.07807148 0.05301712
vt 0.09439327 0.01875325
vt -0.09439337 0.01875322
vt 0.09439325 -0.01875326
vt -0.09439337 -0.0187533
vt 0.07807183 -0.05301713
vt -0.07807851 -0.05302002
vt 0.04826235 -0.07811902
vt -0.04825068 -0.07811397
vt 0.01008719 -0.08970402
vt -0.0101103 -0.08971065
vt -0.02982079 -0.08578353
vt 0.02982119 -0.08578348
vt -0.0645725 -0.06703028
vt 0.06457278 -0.06703031
vt -0.08815902 -0.03668686
vt 0.08815905 -0.03668684

vn -0.9428436 1.596551E-08 8.140618E-07
vn -0.8521606 3.403421E-09 0.4034553
vn -0.6091583 -1.474025E-08 0.7196388
vn -0.2753728 2.935838E-09 0.9017337
vn 0.09268193 1.457042E-08 0.9382771
vn 0.449718 3.63881E-08 0.8286783
vn 0.746065 5.379968E-08 0.5764902
vn 0.9196481 1.798896E-09 0.2078493
vn 0.9196486 -2.249682E-08 -0.2078471
vn 0.7460635 2.203711E-08 -0.5764921
vn 0.4497178 1.862994E-08 -0.8286784
vn 0.09268177 -3.569906E-09 -0.9382771
vn -0.2753741 -1.690991E-08 -0.9017333
vn -0.6091576 -3.691197E-08 -0.7196394
vn -0.852161 -1.0724E-08 -0.4034544
vn -0.8947601 -0.05732449 0.2034792
vn -0.6324041 0.1810421 0.1438141
vn -0.7252724 -0.05617997 0.5637689
vn -0.5177607 0.1792093 0.4024622
vn -0.4368366 -0.05475036 0.8095031
vn -0.3157621 0.1768412 0.5851448
vn -0.08999714 -0.05395507 0.9161099
vn -0.06550615 0.1754851 0.6668103
vn 0.2674257 -0.0542324 0.8805745
vn 0.1941818 0.1759613 0.6393974
vn 0.591916 -0.0554354 0.7033337
vn 0.4253124 0.1779872 0.5053703
vn 0.8287976 -0.05685339 0.3947939
vn 0.5881916 0.1802948 0.2801901
vn 0.9174536 -0.05749395 -3.645001E-07
vn 0.6474812 0.1813097 0
vn 0.8287978 -0.05685339 -0.3947938
vn 0.5881914 0.1802949 -0.2801899
vn 0.591916 -0.05543539 -0.7033337
vn 0.4253121 0.1779873 -0.5053698
vn 0.2674255 -0.05423241 -0.8805746
vn 0.1941814 0.1759614 -0.639397
vn -0.08999714 -0.05395507 -0.9161099
vn -0.06550752 0.1754852 -0.6668098
vn -0.4368367 -0.05475036 -0.809503
vn -0.3157638 0.1768414 -0.5851429
vn -0.7252725 -0.05617997 -0.5637689
vn -0.5177614 0.1792094 -0.4024609
vn -0.8947601 -0.05732449 -0.2034791
vn -0.6324041 0.1810421 -0.1438141
vn 0 -0.2494252 0
vn 0 0.2494252 0

usemtl LeverHandle
f 1/41/16 31/42/16 3/43/16
f 3/47/18 31/48/18 5/49/18
f 5/53/20 31/54/20 7/55/20
f 7/59/22 31/60/22 9/61/22
f 9/65/24 31/66/24 11/67/24
f 11/71/26 31/72/26 13/73/26
f 13/77/28 31/78/28 15/79/28
f 15/83/30 31/42/30 17/84/30
f 17/88/32 31/78/32 19/89/32
f 19/93/34 31/72/34 21/94/34
f 21/98/36 31/66/36 23/99/36
f 23/103/38 31/60/38 25/104/38
f 25/107/40 31/54/40 27/108/40
f 27/112/42 31/48/42 29/113/42
f 29/117/44 31/42/44 1/118/44
f 4/46/17 32/45/17 2/44/17
f 6/52/19 32/51/19 4/50/19
f 8/58/21 32/57/21 6/56/21
f 10/64/23 32/63/23 8/62/23
f 12/70/25 32/69/25 10/68/25
f 14/76/27 32/75/27 12/74/27
f 16/82/29 32/81/29 14/80/29
f 18/87/31 32/86/31 16/85/31
f 20/92/33 32/91/33 18/90/33
f 22/97/35 32/96/35 20/95/35
f 24/102/37 32/101/37 22/100/37
f 26/106/39 32/63/39 24/105/39
f 28/111/41 32/110/41 26/109/41
f 30/116/43 32/115/43 28/114/43
f 2/121/45 32/120/45 30/119/45
f 33/162/46 63/163/46 35/164/46
f 35/164/46 63/163/46 37/167/46
f 37/167/46 63/163/46 39/169/46
f 39/169/46 63/163/46 41/171/46
f 41/171/46 63/163/46 43/173/46
f 43/173/46 63/163/46 45/175/46
f 45/175/46 63/163/46 47/177/46
f 47/177/46 63/163/46 49/179/46
f 49/179/46 63/163/46 51/181/46
f 51/181/46 63/163/46 53/183/46
f 53/183/46 63/163/46 55/185/46
f 55/185/46 63/163/46 57/187/46
f 57/187/46 63/163/46 59/189/46
f 59/189/46 63/163/46 61/191/46
f 61/191/46 63/163/46 33/162/46
f 36/166/47 64/163/47 34/165/47
f 38/168/47 64/163/47 36/166/47
f 40/170/47 64/163/47 38/168/47
f 42/172/47 64/163/47 40/170/47
f 44/174/47 64/163/47 42/172/47
f 46/176/47 64/163/47 44/174/47
f 48/178/47 64/163/47 46/176/47
f 50/180/47 64/163/47 48/178/47
f 52/182/47 64/163/47 50/180/47
f 54/184/47 64/163/47 52/182/47
f 56/186/47 64/163/47 54/184/47
f 58/188/47 64/163/47 56/186/47
f 60/190/47 64/163/47 58/188/47
f 62/192/47 64/163/47 60/190/47
f 34/165/47 64/163/47 62/192/47
f 4/4/2 2/2/1 1/1/1
f 1/1/1 3/3/2 4/4/2
f 6/8/3 4/6/2 3/5/2
f 3/5/2 5/7/3 6/8/3
f 8/12/4 6/10/3 5/9/3
f 5/9/3 7/11/4 8/12/4
f 10/14/5 8/2/4 7/1/4
f 7/1/4 9/13/5 10/14/5
f 12/18/6 10/16/5 9/15/5
f 9/15/5 11/17/6 12/18/6
f 14/22/7 12/20/6 11/19/6
f 11/19/6 13/21/7 14/22/7
f 16/26/8 14/24/7 13/23/7
f 13/23/7 15/25/8 16/26/8
f 18/14/9 16/28/8 15/27/8
f 15/27/8 17/13/9 18/14/9
f 20/12/10 18/30/9 17/29/9
f 17/29/9 19/11/10 20/12/10
f 22/8/11 20/32/10 19/31/10
f 19/31/10 21/7/11 22/8/11
f 24/4/12 22/34/11 21/33/11
f 21/33/11 23/3/12 24/4/12
f 26/36/13 24/28/12 23/27/12
f 23/27/12 25/35/13 26/36/13
f 28/38/14 26/24/13 25/23/13
f 25/23/13 27/37/14 28/38/14
f 30/40/15 28/20/14 27/19/14
f 27/19/14 29/39/15 30/40/15
f 2/36/1 30/16/15 29/15/15
f 29/15/15 1/35/1 2/36/1
f 36/125/2 34/123/1 33/122/1
f 33/122/1 35/124/2 36/125/2
f 38/129/3 36/127/2 35/126/2
f 35/126/2 37/128/3 38/129/3
f 40/133/4 38/131/3 37/130/3
f 37/130/3 39/132/4 40/133/4
f 42/135/5 40/123/4 39/122/4
f 39/122/4 41/134/5 42/135/5
f 44/139/6 42/137/5 41/136/5
f 41/136/5 43/138/6 44/139/6
f 46/143/7 44/141/6 43/140/6
f 43/140/6 45/142/7 46/143/7
f 48/147/8 46/145/7 45/144/7
f 45/144/7 47/146/8 48/147/8
f 50/135/9 48/149/8 47/148/8
f 47/148/8 49/134/9 50/135/9
f 52/133/10 50/151/9 49/150/9
f 49/150/9 51/132/10 52/133/10
f 54/129/11 52/153/10 51/152/10
f 51/152/10 53/128/11 54/129/11
f 56/125/12 54/155/11 53/154/11
f 53/154/11 55/124/12 56/125/12
f 58/157/13 56/149/12 55/148/12
f 55/148/12 57/156/13 58/157/13
f 60/159/14 58/145/13 57/144/13
f 57/144/13 59/158/14 60/159/14
f 62/161/15 60/141/14 59/140/14
f 59/140/14 61/160/15 62/161/15
f 34/157/1 62/137/15 61/136/15
f 61/136/15 33/156/1 34/157/1

