# ProBuilder 6.0.4
# https://unity3d.com/unity/features/worldbuilding/probuilder
# 1/3/2025 3:41:35 PM

mtllib ./RightDOOR.mtl
o RightDOOR

g RightDOOR
v 0.02861607 -0.0005090237 0.8945756
v 1.192093E-07 -0.0005090237 0.8945756
v 1.192093E-07 1 0.8945756
v 0.02861607 1 0.8945756
v -0.02861583 -0.0005090237 0.8945756
v -0.02861583 1 0.8945756
v -0.02861583 2.000509 0.8945756
v 1.192093E-07 2.000509 0.8945756
v 0.02861607 2.000509 0.8945756
v -0.02861631 -0.0005090237 0.4472878
v -0.02861607 1 0.4472878
v -0.02861679 -0.0005090237 0
v -0.02861631 1 0
v -0.02861583 2.000509 0
v -0.02861583 2.000509 0.4472878
v -1.192093E-07 -0.0005090237 0
v 0 1 0
v 0.02861655 -0.0005090237 0
v 0.02861631 1 0
v 0.02861607 2.000509 0
v 1.192093E-07 2.000509 0
v 0.02861631 -0.0005090237 0.4472878
v 0.02861619 1 0.4472878
v 0.02861607 2.000509 0.4472878
v 1.192093E-07 2.000509 0.4472878
v 0 -0.0005090237 0.4472878

vt 0.02861607 -1.000509
vt 1.192093E-07 -1.000509
vt 1.192093E-07 0
vt 0.02861607 0
vt -0.02861583 -1.000509
vt -0.02861583 0
vt -0.02861583 1.000509
vt 1.192093E-07 1.000509
vt 0.02861607 1.000509
vt 0.8945756 -1.000509
vt 0.4472878 -1.000509
vt 0.4472878 -8.524021E-09
vt 0.8945756 -8.524057E-09
vt 0.4472878 1.000509
vt 0.8945756 1.000509
vt -0.4472878 -1.000509
vt -0.4472878 -3.409587E-09
vt -0.8945756 -1.000509
vt -0.8945756 -3.40958E-09
vt -0.8945756 1.000509
vt -0.4472878 1.000509
vt -0.02861607 0.8945756
vt -1.192093E-07 0.8945756
vt -1.192093E-07 0.4472878
vt -0.02861607 0.4472878
vt 0.02861583 0.8945756
vt 0.02861583 0.4472878

vn 0 0 1
vn -1 0 1.066063E-06
vn 0 0 -1
vn 1 2.382973E-07 5.330317E-07
vn 0 1 0
vn 0 -1 0

usemtl DoublelDoors
f 4/4/1 3/3/1 2/2/1 1/1/1
f 3/3/1 6/6/1 5/5/1 2/2/1
f 8/8/1 7/7/1 6/6/1 3/3/1
f 9/9/1 8/8/1 3/3/1 4/4/1
f 6/13/2 11/12/2 10/11/2 5/10/2
f 11/12/2 13/3/2 12/2/2 10/11/2
f 15/14/2 14/8/2 13/3/2 11/12/2
f 7/15/2 15/14/2 11/12/2 6/13/2
f 17/3/3 16/2/3 12/1/3 13/4/3
f 18/5/3 16/2/3 17/3/3 19/6/3
f 19/6/3 17/3/3 21/8/3 20/7/3
f 21/8/3 17/3/3 13/4/3 14/9/3
f 18/2/4 19/3/4 23/17/4 22/16/4
f 22/16/4 23/17/4 4/19/4 1/18/4
f 4/19/4 23/17/4 24/21/4 9/20/4
f 23/17/4 19/3/4 20/8/4 24/21/4
f 8/23/5 9/22/5 24/25/5 25/24/5
f 7/26/5 8/23/5 25/24/5 15/27/5
f 15/27/5 25/24/5 21/3/5 14/4/5
f 25/24/5 24/25/5 20/6/5 21/3/5
f 26/24/6 16/3/6 18/4/6 22/27/6
f 10/25/6 12/6/6 16/3/6 26/24/6
f 5/22/6 10/25/6 26/24/6 2/23/6
f 2/23/6 26/24/6 22/27/6 1/26/6

