# ProBuilder 6.0.4
# https://unity3d.com/unity/features/worldbuilding/probuilder
# 12/27/2024 5:47:55 PM

mtllib ./SlidingDoubleDoorFrame.mtl
o SlidingDoubleDoorFrame

g SlidingDoubleDoorFrame
v 0.1175442 2.002871 1.596191
v -0.1175442 2.002871 1.596191
v 0.1175442 2.152912 1.596191
v -0.1175442 2.152912 1.596191
v -0.1175442 2.002871 -1.596227
v -0.1175442 2.152912 -1.596227
v 0.1175442 2.002871 -1.596227
v 0.1175442 2.152912 -1.596227
v 0.1175442 8.34465E-07 1.596227
v -0.1175442 8.34465E-07 1.596227
v 0.1175442 2.0036 1.596226
v -0.1175442 2.0036 1.596226
v -0.1175442 8.34465E-07 0.8998861
v -0.1175442 2.0036 0.8998861
v 0.1175442 8.34465E-07 0.8998861
v 0.1175442 2.0036 0.8998861
v 0.1175442 8.34465E-07 -0.8997734
v -0.1175442 8.34465E-07 -0.8997734
v 0.1175442 2.0036 -0.8997737
v -0.1175442 2.0036 -0.8997737
v -0.1175442 8.34465E-07 -1.596114
v -0.1175442 2.0036 -1.596114
v 0.1175442 8.34465E-07 -1.596114
v 0.1175442 2.0036 -1.596114

vt 0.1175442 0.9264147
vt -0.1175442 0.9264147
vt 0.1175442 1.076456
vt -0.1175442 1.076456
vt 1.596191 0.9264147
vt -1.596227 0.9264147
vt 1.596191 1.076456
vt -1.596227 1.076456
vt -0.1175442 1.596191
vt 0.1175442 1.596191
vt -0.1175442 -1.596227
vt 0.1175442 -1.596227
vt 0.1175442 -0.9594564
vt -0.1175442 -0.9594564
vt 0.1175442 1.044142
vt -0.1175442 1.044142
vt -0.4737734 -0.9594564
vt -1.170114 -0.9594564
vt -0.4737738 1.044142
vt -1.170114 1.044142
vt 1.170114 -0.9594564
vt 0.4737734 -0.9594564
vt 1.170114 1.044142
vt 0.4737738 1.044142
vt -0.1175442 -0.4737737
vt 0.1175442 -0.4737737
vt -0.1175442 -1.170114
vt 0.1175442 -1.170114

vn 0 0 1
vn -1 0 0
vn 0 0 -1
vn 1 0 0
vn 0 1 0
vn 0 -1 0

usemtl DoorFrameURP
f 3/3/1 4/4/1 2/2/1 1/1/1
f 4/7/2 6/8/2 5/6/2 2/5/2
f 6/3/3 8/4/3 7/2/3 5/1/3
f 8/7/4 3/8/4 1/6/4 7/5/4
f 8/11/5 6/12/5 4/10/5 3/9/5
f 1/10/6 2/9/6 5/11/6 7/12/6
f 11/15/1 12/16/1 10/14/1 9/13/1
f 12/19/2 14/20/2 13/18/2 10/17/2
f 14/15/3 16/16/3 15/14/3 13/13/3
f 16/23/4 11/24/4 9/22/4 15/21/4
f 16/27/5 14/28/5 12/26/5 11/25/5
f 9/26/6 10/25/6 13/27/6 15/28/6
f 19/15/1 20/16/1 18/14/1 17/13/1
f 20/19/2 22/20/2 21/18/2 18/17/2
f 22/15/3 24/16/3 23/14/3 21/13/3
f 24/23/4 19/24/4 17/22/4 23/21/4
f 24/27/5 22/28/5 20/26/5 19/25/5
f 17/26/6 18/25/6 21/27/6 23/28/6

