# ProBuilder 6.0.4
# https://unity3d.com/unity/features/worldbuilding/probuilder
# 12/27/2024 5:46:27 PM

mtllib ./DoorFrame.mtl
o DoorFrame

g DoorFrame
v 0.1175442 2.002871 0.6243939
v -0.1175442 2.002871 0.6243939
v 0.1175442 2.152912 0.6243939
v -0.1175442 2.152912 0.6243939
v -0.1175442 2.002871 -0.6243939
v -0.1175442 2.152912 -0.6243939
v 0.1175442 2.002871 -0.6243939
v 0.1175442 2.152912 -0.6243939
v 0.1175442 1.192093E-07 0.6234415
v -0.1175442 1.192093E-07 0.6234415
v 0.1175442 2.003599 0.6234415
v -0.1175442 2.003599 0.6234415
v -0.1175442 1.192093E-07 0.4486062
v -0.1175442 2.003599 0.4486062
v 0.1175442 1.192093E-07 0.4486062
v 0.1175442 2.003599 0.4486062
v 0.1175442 1.192093E-07 -0.4495586
v -0.1175442 1.192093E-07 -0.4495586
v 0.1175442 2.003599 -0.4495588
v -0.1175442 2.003599 -0.4495588
v -0.1175442 1.192093E-07 -0.624394
v -0.1175442 2.003599 -0.624394
v 0.1175442 1.192093E-07 -0.624394
v 0.1175442 2.003599 -0.624394

vt 0.1175442 0.9264147
vt -0.1175442 0.9264147
vt 0.1175442 1.076456
vt -0.1175442 1.076456
vt 0.6243939 0.9264147
vt -0.6243939 0.9264148
vt 0.6243939 1.076456
vt -0.6243939 1.076456
vt -0.1175442 0.6243939
vt 0.1175442 0.6243939
vt -0.1175442 -0.6243939
vt 0.1175442 -0.6243939
vt 0.1175442 -0.9594566
vt -0.1175442 -0.9594566
vt 0.1175442 1.044142
vt -0.1175442 1.044142
vt -0.4495591 -0.9594564
vt -0.6243945 -0.9594564
vt -0.4495591 1.044142
vt -0.6243945 1.044142
vt 0.6243945 -0.9594564
vt 0.4495591 -0.9594564
vt 0.6243945 1.044142
vt 0.4495591 1.044142
vt -0.1175442 -0.4495586
vt 0.1175442 -0.4495586

vn 0 0 1
vn -1 0 0
vn 0 0 -1
vn 1 0 0
vn 0 1 0
vn 0 -1 -9.546E-08

usemtl DoorFrameURP
f 3/3/1 4/4/1 2/2/1 1/1/1
f 4/7/2 6/8/2 5/6/2 2/5/2
f 6/3/3 8/4/3 7/2/3 5/1/3
f 8/7/4 3/8/4 1/6/4 7/5/4
f 8/11/5 6/12/5 4/10/5 3/9/5
f 1/10/6 2/9/6 5/11/6 7/12/6
f 11/15/1 12/16/1 10/14/1 9/13/1
f 12/19/2 14/20/2 13/18/2 10/17/2
f 14/15/3 16/16/3 15/14/3 13/13/3
f 16/23/4 11/24/4 9/22/4 15/21/4
f 16/11/5 14/12/5 12/26/5 11/25/5
f 9/26/6 10/25/6 13/11/6 15/12/6
f 19/15/1 20/16/1 18/14/1 17/13/1
f 20/19/2 22/20/2 21/18/2 18/17/2
f 22/15/3 24/16/3 23/14/3 21/13/3
f 24/23/4 19/24/4 17/22/4 23/21/4
f 24/11/5 22/12/5 20/26/5 19/25/5
f 17/26/6 18/25/6 21/11/6 23/12/6

